HIERARCHY
ROOT Hips
{
  OFFSET 5.84602e-005 68.8428 3.50346
  CHANNELS 6 Xposition Yposition Zposition Zrotation Xrotation Yrotation
  JOINT Spine
  {
    OFFSET 0 8.597 -4.6522
    CHANNELS 3 Zrotation Xrotation Yrotation
    JOINT Spine1
    {
      OFFSET 0 7.8454 0.4098
      CHANNELS 3 Zrotation Xrotation Yrotation
      JOINT Spine2
      {
        OFFSET 0 9.7078 -2.1609
        CHANNELS 3 Zrotation Xrotation Yrotation
        JOINT Neck
        {
          OFFSET 0 21.8761 -0.4549
          CHANNELS 3 Zrotation Xrotation Yrotation
          JOINT Head
          {
            OFFSET 0 12.3537 3.3602
            CHANNELS 3 Zrotation Xrotation Yrotation
            End Site
            {
              OFFSET 0.0001 18.9506 0.5657
            }
          }
        }
        JOINT LeftShoulder
        {
          OFFSET 2.2086 21.1115 7.2329
          CHANNELS 3 Zrotation Xrotation Yrotation
          JOINT LeftArm
          {
            OFFSET 13.1193 3.0282 -4.8998
            CHANNELS 3 Zrotation Xrotation Yrotation
            JOINT LeftForeArm
            {
              OFFSET 27.4081 -0.0973053 -0.2375
              CHANNELS 3 Zrotation Xrotation Yrotation
              JOINT LeftHand
              {
                OFFSET 22.8641 0.0662994 -0.1369
                CHANNELS 3 Zrotation Xrotation Yrotation
                JOINT LeftHandIndex1
                {
                  OFFSET 8.8614 0.775009 2.4612
                  CHANNELS 3 Zrotation Xrotation Yrotation
                  JOINT LeftHandIndex2
                  {
                    OFFSET 3.3146 -0.808304 0.5841
                    CHANNELS 3 Zrotation Xrotation Yrotation
                    JOINT LeftHandIndex3
                    {
                      OFFSET 2.2628 -0.552002 0.3989
                      CHANNELS 3 Zrotation Xrotation Yrotation
                      End Site
                      {
                        OFFSET 1.6102 -0.4807 0.2612
                      }
                    }
                  }
                }
                JOINT LeftHandMiddle1
                {
                  OFFSET 8.9937 0.895004 0.2143
                  CHANNELS 3 Zrotation Xrotation Yrotation
                  JOINT LeftHandMiddle2
                  {
                    OFFSET 4.0984 0.0113983 -0.0242
                    CHANNELS 3 Zrotation Xrotation Yrotation
                    JOINT LeftHandMiddle3
                    {
                      OFFSET 2.2716 0.00689697 -0.0138001
                      CHANNELS 3 Zrotation Xrotation Yrotation
                      End Site
                      {
                        OFFSET 2.0404 -0.1441 0.0027
                      }
                    }
                  }
                }
                JOINT LeftHandRing1
                {
                  OFFSET 8.5234 0.597198 -2.0164
                  CHANNELS 3 Zrotation Xrotation Yrotation
                  JOINT LeftHandRing2
                  {
                    OFFSET 3.7188 -0.188293 -0.2328
                    CHANNELS 3 Zrotation Xrotation Yrotation
                    JOINT LeftHandRing3
                    {
                      OFFSET 2.1191 -0.106598 -0.1332
                      CHANNELS 3 Zrotation Xrotation Yrotation
                      End Site
                      {
                        OFFSET 1.8737 -0.2304 -0.0886
                      }
                    }
                  }
                }
                JOINT LeftHandPinky1
                {
                  OFFSET 7.9094 -0.601089 -3.4825
                  CHANNELS 3 Zrotation Xrotation Yrotation
                  JOINT LeftHandPinky2
                  {
                    OFFSET 2.2874 -0.477005 -0.6314
                    CHANNELS 3 Zrotation Xrotation Yrotation
                    JOINT LeftHandPinky3
                    {
                      OFFSET 1.6774 -0.349396 -0.4633
                      CHANNELS 3 Zrotation Xrotation Yrotation
                      End Site
                      {
                        OFFSET 1.4888 -0.4091 -0.3416
                      }
                    }
                  }
                }
                JOINT LeftHandThumb1
                {
                  OFFSET 1.833 -1.3875 1.3896
                  CHANNELS 3 Zrotation Xrotation Yrotation
                  JOINT LeftHandThumb2
                  {
                    OFFSET 3.4129 -1.121 2.5732
                    CHANNELS 3 Zrotation Xrotation Yrotation
                    JOINT LeftHandThumb3
                    {
                      OFFSET 2.2474 -0.804199 1.6192
                      CHANNELS 3 Zrotation Xrotation Yrotation
                      End Site
                      {
                        OFFSET 1.6527 -0.5689 1.1317
                      }
                    }
                  }
                }
              }
            }
          }
        }
        JOINT RightShoulder
        {
          OFFSET -2.2086 21.1115 7.2329
          CHANNELS 3 Zrotation Xrotation Yrotation
          JOINT RightArm
          {
            OFFSET -13.1216 3.0287 -4.9007
            CHANNELS 3 Zrotation Xrotation Yrotation
            JOINT RightForeArm
            {
              OFFSET -27.4081 -0.0973053 -0.2375
              CHANNELS 3 Zrotation Xrotation Yrotation
              JOINT RightHand
              {
                OFFSET -22.8641 0.0664063 -0.1369
                CHANNELS 3 Zrotation Xrotation Yrotation
                JOINT RightHandIndex1
                {
                  OFFSET -8.8614 0.774994 2.4612
                  CHANNELS 3 Zrotation Xrotation Yrotation
                  JOINT RightHandIndex2
                  {
                    OFFSET -3.3146 -0.808304 0.5841
                    CHANNELS 3 Zrotation Xrotation Yrotation
                    JOINT RightHandIndex3
                    {
                      OFFSET -2.2628 -0.552002 0.3989
                      CHANNELS 3 Zrotation Xrotation Yrotation
                      End Site
                      {
                        OFFSET -1.6102 -0.4807 0.2612
                      }
                    }
                  }
                }
                JOINT RightHandMiddle1
                {
                  OFFSET -8.9937 0.894989 0.2143
                  CHANNELS 3 Zrotation Xrotation Yrotation
                  JOINT RightHandMiddle2
                  {
                    OFFSET -4.0984 0.0113983 -0.0242
                    CHANNELS 3 Zrotation Xrotation Yrotation
                    JOINT RightHandMiddle3
                    {
                      OFFSET -2.2716 0.00691223 -0.0138001
                      CHANNELS 3 Zrotation Xrotation Yrotation
                      End Site
                      {
                        OFFSET -2.0404 -0.1441 0.0027
                      }
                    }
                  }
                }
                JOINT RightHandRing1
                {
                  OFFSET -8.5234 0.597198 -2.0164
                  CHANNELS 3 Zrotation Xrotation Yrotation
                  JOINT RightHandRing2
                  {
                    OFFSET -3.7188 -0.188309 -0.2328
                    CHANNELS 3 Zrotation Xrotation Yrotation
                    JOINT RightHandRing3
                    {
                      OFFSET -2.1191 -0.106598 -0.1332
                      CHANNELS 3 Zrotation Xrotation Yrotation
                      End Site
                      {
                        OFFSET -1.8737 -0.2304 -0.0886
                      }
                    }
                  }
                }
                JOINT RightHandPinky1
                {
                  OFFSET -7.9094 -0.601105 -3.4825
                  CHANNELS 3 Zrotation Xrotation Yrotation
                  JOINT RightHandPinky2
                  {
                    OFFSET -2.2874 -0.477005 -0.6314
                    CHANNELS 3 Zrotation Xrotation Yrotation
                    JOINT RightHandPinky3
                    {
                      OFFSET -1.6774 -0.349396 -0.4633
                      CHANNELS 3 Zrotation Xrotation Yrotation
                      End Site
                      {
                        OFFSET -1.4888 -0.4091 -0.3416
                      }
                    }
                  }
                }
                JOINT RightHandThumb1
                {
                  OFFSET -1.833 -1.38751 1.3896
                  CHANNELS 3 Zrotation Xrotation Yrotation
                  JOINT RightHandThumb2
                  {
                    OFFSET -3.41299 -1.12099 2.5732
                    CHANNELS 3 Zrotation Xrotation Yrotation
                    JOINT RightHandThumb3
                    {
                      OFFSET -2.24741 -0.804108 1.6192
                      CHANNELS 3 Zrotation Xrotation Yrotation
                      End Site
                      {
                        OFFSET -1.6527 -0.5689 1.1317
                      }
                    }
                  }
                }
              }
            }
          }
        }
      }
    }
  }
  JOINT RightUpLeg
  {
    OFFSET -9.1966 3.8861 -0.7581
    CHANNELS 3 Zrotation Xrotation Yrotation
    JOINT RightLeg
    {
      OFFSET -0.7359 -41.0265 0
      CHANNELS 3 Zrotation Xrotation Yrotation
      JOINT RightFoot
      {
        OFFSET 0 -40.2855 0
        CHANNELS 3 Zrotation Xrotation Yrotation
        JOINT RightToeBase
        {
          OFFSET 0 -5.6122 11.7359
          CHANNELS 3 Zrotation Xrotation Yrotation
          End Site
          {
            OFFSET 0 0 7.8731
          }
        }
      }
    }
  }
  JOINT LeftUpLeg
  {
    OFFSET 9.1965 3.8864 -0.7581
    CHANNELS 3 Zrotation Xrotation Yrotation
    JOINT LeftLeg
    {
      OFFSET 0.7359 -41.0268 0
      CHANNELS 3 Zrotation Xrotation Yrotation
      JOINT LeftFoot
      {
        OFFSET 0 -40.2855 0
        CHANNELS 3 Zrotation Xrotation Yrotation
        JOINT LeftToeBase
        {
          OFFSET 0 -5.6122 11.7359
          CHANNELS 3 Zrotation Xrotation Yrotation
          End Site
          {
            OFFSET 0 0 7.8731
          }
        }
      }
    }
  }
}
MOTION
Frames:	4
Frame Time:	0.0333333
5.84602e-005 68.8428 3.50346 0 0 -0 0 0 -0 0 0 -0 0 0 -0 0 0 -0 0 0 -0 0 0 -0 0 0 -0 0 0 -0 0 0 -0 0 0 -0 0 0 -0 0 0 -0 0 0 -0 -0.0146107 -8.87603e-005 -2.63497e-007 2.99804e-018 -2.42657e-020 -1.42182e-022 0 0 -0 -0.0187562 -0.001176 5.858e-005 5.06224e-018 3.88251e-019 1.21329e-020 0 0 -0 -0.012269 -0.00324817 0.000675346 -1.74678e-018 3.88251e-019 -0 0 0 -0 0 0 -0 0 0 -0 0 0 -0 0 0 -0 0 0 -0 0 0 -0 0 0 -0 0 0 -0 0 0 -0 0 0 -0 0.0149955 -9.10982e-005 2.64101e-007 -9.69331e-018 1.21329e-020 -4.7394e-023 0 0 -0 0.0189956 -0.00119102 -5.96516e-005 -5.41541e-019 0 2.42657e-020 0 0 -0 0.0122698 -0.00324857 -0.000673756 -2.00796e-019 0 -1.94126e-019 0 0 -0 0 0 -0 0 0 -0 3.39842 1.33031 -0.0637918 -5.65207e-008 0.834868 -0.000436188 -3.39935 -2.16518 -0.0642563 -8.89002e-024 -1.18485e-023 -1.48106e-024 -3.39844 1.35642 0.0640283 -3.18788e-007 0.782166 -0.000588827 3.39931 -2.13858 0.0634662 1.1399e-023 0 -0 
-3.60062 1.59569 6.29685 -72.0441 -89.9972 -161.043 0.133215 -0.152343 -0.279406 0.265713 -0.305306 -0.558611 0.265714 -0.305309 -0.558595 3.82843 -0.785775 -0.0107369 19.1606 -1.65066 -0.14524 -30.2898 -8.99802 -1.75535 -42.0265 29.7528 8.06769 -17.6089 -1.84719 -67.5422 -15.0969 -18.7494 -21.175 2.38542e-015 -3.18055e-015 4.77083e-015 1.59028e-015 0 3.18055e-015 -3.18055e-015 -3.18055e-015 1.59028e-015 2.38542e-015 -3.18055e-015 4.77083e-015 -0.0146233 -8.70125e-005 -5.76592e-007 1.65588e-007 -5.17527e-007 5.06724e-008 2.38542e-015 -3.18055e-015 4.77083e-015 -0.0187579 -0.00117563 5.67105e-005 1.65073e-007 -5.17665e-007 5.06593e-008 2.38542e-015 -3.18055e-015 4.77083e-015 -0.0122659 -0.00324513 0.00067431 5.56597e-015 3.18055e-015 -0 2.38542e-015 -3.18055e-015 4.77083e-015 1.59028e-015 0 3.18055e-015 -3.18055e-015 -3.18055e-015 1.59028e-015 -25.7003 2.80446 -14.7287 83.5379 -0.857542 116.448 -10.6086 -11.6911 46.5025 -21.7803 -12.8443 5.88698 -2.97836e-007 -3.01204e-007 -5.19989e-008 -1.04916e-006 1.43867e-007 -9.78149e-008 -1.48918e-007 -1.50602e-007 -2.59994e-008 -2.97836e-007 -3.01204e-007 -5.19989e-008 0.0149946 -9.2299e-005 2.05495e-007 2.34813e-007 -5.02051e-007 -6.61821e-008 -2.97836e-007 -3.01204e-007 -5.19989e-008 0.0189896 -0.00119065 -6.30738e-005 -1.48918e-007 -1.50607e-007 -2.59729e-008 -2.97836e-007 -3.01204e-007 -5.19989e-008 0.0122654 -0.00324634 -0.000678357 -1.48917e-007 -1.50606e-007 -2.59791e-008 -2.97836e-007 -3.01204e-007 -5.19989e-008 -1.04916e-006 1.43867e-007 -9.78149e-008 -1.48918e-007 -1.50602e-007 -2.59994e-008 -1.07405 -4.31907 -1.7715 9.73537 59.233 -10.0973 -2.21438 15.9828 9.28514 2.79994e-007 1.21218e-006 1.16372e-006 -18.9283 -31.1331 -7.73003 34.929 50.0314 -17.1371 -4.86978 2.54303 -17.3194 -1.06586e-006 -2.28072e-006 -1.70686e-006 
-3.60062 1.59569 6.29685 -72.0441 -89.9972 -161.043 0.133215 -0.152343 -0.279406 0.265713 -0.305306 -0.558611 0.265714 -0.305309 -0.558595 3.6562 -0.780918 -0.0117365 18.9166 -1.68313 -0.247566 -30.2898 -8.99802 -1.75535 -41.6296 29.2339 7.32855 -17.3339 -1.77786 -68.3977 -15.1501 -18.7586 -20.6799 1.63053e-006 -2.10039e-007 -2.53298e-007 5.96354e-015 0 -1.59028e-015 1.50388e-006 -1.71628e-008 -1.06856e-006 1.63053e-006 -2.10039e-007 -2.53298e-007 -0.0146017 -8.78233e-005 -9.89166e-007 1.50382e-006 -1.7027e-008 -1.06857e-006 1.63053e-006 -2.10039e-007 -2.53298e-007 -0.0187701 -0.00117477 6.32001e-005 1.50379e-006 -1.69937e-008 -1.06858e-006 1.63053e-006 -2.10039e-007 -2.53298e-007 -0.0122695 -0.00324593 0.000677746 1.37354e-006 4.135e-007 -9.97575e-007 1.63053e-006 -2.10039e-007 -2.53298e-007 5.96354e-015 0 -1.59028e-015 1.50388e-006 -1.71628e-008 -1.06856e-006 -25.7003 2.80446 -14.7287 83.5379 -0.857548 116.448 -10.6086 -11.6911 46.5024 -21.7803 -12.8443 5.88697 -1.0559e-006 1.34195e-006 -1.36339e-008 -2.97836e-007 -3.01204e-007 -5.1999e-008 -1.55654e-007 1.04748e-006 5.81818e-008 -1.0559e-006 1.34195e-006 -1.36339e-008 0.0150033 -9.19451e-005 1.12886e-006 2.28062e-007 6.96043e-007 1.78388e-008 -1.0559e-006 1.34195e-006 -1.36339e-008 0.0190003 -0.00119058 -6.19534e-005 -1.55673e-007 1.04749e-006 5.80098e-008 -1.0559e-006 1.34195e-006 -1.36339e-008 0.012269 -0.00324871 -0.00067815 -1.55671e-007 1.04749e-006 5.80747e-008 -1.0559e-006 1.34195e-006 -1.36339e-008 -2.97836e-007 -3.01204e-007 -5.1999e-008 -1.55654e-007 1.04748e-006 5.81818e-008 -1.07405 -4.31907 -1.7715 9.73538 59.233 -10.0973 -2.21438 15.9828 9.28514 -2.29553e-008 -1.76981e-006 6.30314e-007 -18.9283 -31.1331 -7.73003 34.929 50.0314 -17.1372 -4.8698 2.54302 -17.3194 -0 0 2.98177e-016 
-3.60062 1.59569 6.29685 -72.0441 -89.9972 -161.043 0.133215 -0.152343 -0.279406 0.265713 -0.305306 -0.558611 0.265714 -0.305309 -0.558595 3.4838 -0.776168 -0.0128484 18.6724 -1.71516 -0.350143 -30.2898 -8.99802 -1.75535 -41.2412 28.7091 6.59513 -17.0569 -1.71244 -69.2564 -15.2033 -18.7682 -20.1842 -9.68679e-008 3.41291e-007 1.92916e-007 1.44982e-007 6.45716e-007 9.82002e-008 -2.47142e-007 3.89317e-007 -1.63272e-006 -9.68679e-008 3.41291e-007 1.92916e-007 -0.0146186 -8.7265e-005 -8.37496e-007 -2.47168e-007 3.89525e-007 -1.63267e-006 -9.68679e-008 3.41291e-007 1.92916e-007 -0.0187328 -0.0011749 5.67345e-005 -1.52659e-007 4.81756e-008 -1.82562e-006 -9.68679e-008 3.41291e-007 1.92916e-007 -0.0122956 -0.0032542 0.000678872 -2.47207e-007 3.89488e-007 -1.63267e-006 -9.68679e-008 3.41291e-007 1.92916e-007 1.44982e-007 6.45716e-007 9.82002e-008 -2.47142e-007 3.89317e-007 -1.63272e-006 -25.7003 2.80445 -14.7287 83.5379 -0.857542 116.448 -10.6086 -11.6911 46.5024 -21.7803 -12.8443 5.88696 -1.48918e-007 -1.50602e-007 -2.59994e-008 1.48918e-007 1.50602e-007 2.59994e-008 -1.48918e-007 -1.50602e-007 -2.59994e-008 -1.48918e-007 -1.50602e-007 -2.59994e-008 0.0149894 -9.0514e-005 4.63985e-006 -1.48918e-007 -1.50605e-007 -2.59796e-008 -1.48918e-007 -1.50602e-007 -2.59994e-008 0.0189953 -0.00118903 -6.72651e-005 -1.48917e-007 -1.50606e-007 -2.59729e-008 -1.48918e-007 -1.50602e-007 -2.59994e-008 0.0122642 -0.00324754 -0.000678563 -1.48917e-007 -1.50606e-007 -2.59791e-008 -1.48918e-007 -1.50602e-007 -2.59994e-008 1.48918e-007 1.50602e-007 2.59994e-008 -1.48918e-007 -1.50602e-007 -2.59994e-008 -1.07405 -4.31907 -1.7715 9.73537 59.233 -10.0973 -2.21438 15.9828 9.28514 -1.39997e-007 -6.06088e-007 -5.81862e-007 -18.9283 -31.1331 -7.73001 34.929 50.0313 -17.1371 -4.86979 2.54305 -17.3195 -2.28072e-006 1.06586e-006 1.55299e-006 
